<?xml version="1.0" encoding="UTF-8"?>
<svg version="1.1" xmlns="http://www.w3.org/2000/svg" width="512" height="512">
<path d="M0 0 C1.35200148 -0.00302378 2.70400126 -0.0069144 4.05599803 -0.01159257 C7.75643239 -0.02185223 11.45676965 -0.01969594 15.1572119 -0.01541197 C19.15392128 -0.01294103 23.1506075 -0.02196353 27.14730835 -0.02944946 C34.97187559 -0.04218858 42.79640849 -0.04399111 50.62098435 -0.0416492 C56.9827362 -0.03986488 63.34447765 -0.04161814 69.70622826 -0.04587364 C70.61228687 -0.04646883 71.51834549 -0.04706402 72.45186042 -0.04767724 C74.29264111 -0.04888902 76.13342179 -0.05010316 77.97420248 -0.05131962 C95.23142752 -0.06219229 112.48863302 -0.06003406 129.74585917 -0.05393478 C145.52273509 -0.04876677 161.29954925 -0.06001847 177.07641295 -0.07903299 C193.28675307 -0.09841974 209.49706398 -0.10666587 225.70741576 -0.10290974 C234.80398605 -0.10099885 243.90050378 -0.10347426 252.99706459 -0.11762428 C260.74177688 -0.12954977 268.48640428 -0.13092994 276.23111776 -0.11883412 C280.17983588 -0.11295341 284.12839878 -0.11182348 288.07710648 -0.12383652 C291.69750606 -0.1347224 295.31762136 -0.13156014 298.93800779 -0.11757483 C300.85616314 -0.11369249 302.77433125 -0.12445294 304.69245654 -0.13587171 C317.33119066 -0.05732071 328.3242186 2.65864092 337.88639832 11.26460266 C347.86412808 21.70945461 349.94410411 32.84212276 350.17472839 46.73994446 C350.20628322 48.20360274 350.25395229 49.6670086 350.31828308 51.1295929 C350.91117506 64.82802932 350.91117506 64.82802932 345.87467957 70.47554016 C344.49249668 71.76215716 343.09004479 73.02768581 341.65983582 74.26069641 C336.59880331 80.28824554 331.93532478 86.56506916 327.42155457 93.01069641 C325.65983582 95.26069641 325.65983582 95.26069641 322.65983582 97.26069641 C322.65103645 96.17194717 322.65103645 96.17194717 322.64205933 95.061203 C322.58404238 88.20514798 322.51191422 81.34936927 322.4241209 74.49363518 C322.37948291 70.96939782 322.34021285 67.44527429 322.31340027 63.92085266 C322.28230234 59.8645693 322.22751619 55.80890101 322.17155457 51.75288391 C322.16196968 49.86350601 322.16196968 49.86350601 322.15219116 47.93595886 C322.132397 46.75518768 322.11260284 45.5744165 322.09220886 44.35786438 C322.0811058 43.32305939 322.07000275 42.28825439 322.05856323 41.22209167 C321.47905753 36.9180349 320.0955308 33.60933624 316.90121883 30.60871536 C314.09813132 28.92287449 312.33566411 28.88578492 309.07473087 28.8859663 C307.93077982 28.87875976 306.78682877 28.87155321 305.60821253 28.86412829 C304.3509344 28.87150258 303.09365627 28.87887686 301.79827881 28.88647461 C300.44957714 28.88373465 299.1008776 28.87968311 297.75218338 28.87443095 C294.04247566 28.86382568 290.33300824 28.87198493 286.62331092 28.88318145 C282.62391915 28.89201021 278.62455927 28.88358376 274.62516785 28.87731934 C266.78867281 28.86782129 258.95226972 28.87444012 251.11578149 28.88658228 C241.99347512 28.90019106 232.87119075 28.89856539 223.7488768 28.89644895 C207.47365348 28.89325754 191.1984739 28.90493509 174.92326355 28.92451477 C159.12442187 28.94351643 143.32563146 28.95060332 127.52677917 28.94502258 C110.33163573 28.93896661 93.13651486 28.93913877 75.94137329 28.95050842 C74.10824359 28.95171573 72.27511388 28.95292171 70.44198418 28.95412636 C69.54000363 28.9547299 68.63802308 28.95533344 67.7087098 28.95595526 C61.34756788 28.95983705 54.98643435 28.95943976 48.62529182 28.95754051 C40.87409807 28.95541972 33.12294927 28.96063376 25.37176818 28.97515406 C21.41575544 28.98240453 17.4598082 28.98646955 13.5037899 28.98191071 C9.8835919 28.97784031 6.26352924 28.98298259 2.64335179 28.99553678 C0.71063879 28.9998607 -1.22208843 28.99436747 -3.15479749 28.9885475 C-4.30135629 28.9943797 -5.4479151 29.00021189 -6.6292181 29.00622082 C-7.61849959 29.00708759 -8.60778108 29.00795437 -9.6270408 29.00884742 C-12.650201 29.28947596 -14.69771627 29.75007649 -17.34016418 31.26069641 C-19.59220466 35.08487994 -19.59065953 38.66064502 -19.59184647 43.02803707 C-19.59475335 43.69891632 -19.59766023 44.36979557 -19.6006552 45.06100449 C-19.60796481 47.31320142 -19.60100744 49.56512674 -19.59413147 51.81732178 C-19.59643553 53.44665846 -19.59961168 55.07599411 -19.60358596 56.70532757 C-19.61195025 61.18609699 -19.60780126 65.66678142 -19.60161352 70.14755118 C-19.59709669 74.97857662 -19.604069 79.80958723 -19.60957336 84.64060974 C-19.61847743 94.1062436 -19.61654079 103.57184578 -19.61074808 113.03748088 C-19.60623532 120.72943797 -19.60561702 128.42138616 -19.60779572 136.11334419 C-19.60810218 137.2072021 -19.60840865 138.30106 -19.6087244 139.42806511 C-19.60936384 141.65007806 -19.61001226 143.872091 -19.61066958 146.09410394 C-19.61637591 166.94169232 -19.60981037 187.78926313 -19.59906885 208.63684864 C-19.59013432 226.53141152 -19.59168399 244.42594845 -19.60090637 262.32051086 C-19.61160581 283.09084487 -19.61582524 303.86116345 -19.60968184 324.63149983 C-19.60904473 326.84574417 -19.60841599 329.05998852 -19.60779572 331.27423286 C-19.60748716 332.36373721 -19.60717861 333.45324155 -19.60686071 334.57576118 C-19.6051327 342.25942883 -19.60805119 349.94308672 -19.61275482 357.62675285 C-19.61836008 366.98928825 -19.61685474 376.35179011 -19.60619333 385.71432167 C-19.60093165 390.49272226 -19.59888833 395.27106689 -19.60549164 400.04946709 C-19.61144297 404.42217011 -19.60818944 408.79476521 -19.59753653 413.16745842 C-19.59529903 414.75084965 -19.59644663 416.33424996 -19.60128811 417.91763537 C-19.607359 420.06772524 -19.60114246 422.21744417 -19.59184647 424.36751461 C-19.59135941 426.15990595 -19.59135941 426.15990595 -19.59086251 427.98850721 C-19.32302437 431.48441042 -18.86370063 434.09538878 -17.34016418 437.26069641 C-13.84031197 439.3574854 -10.65235944 439.51223674 -6.63201141 439.51796532 C-5.48606931 439.52441421 -4.34012721 439.5308631 -3.15945959 439.53750741 C-1.9050943 439.53441021 -0.65072902 439.53131301 0.64164734 439.52812195 C1.99121146 439.53185904 3.34077341 439.53646079 4.69033194 439.54185259 C8.3977216 439.55409038 12.10502107 439.55382123 15.81242633 439.55146384 C19.81112228 439.55105588 23.80978923 439.56209267 27.80847168 439.57157898 C35.64145923 439.58819315 43.47441668 439.59368867 51.30742037 439.59480374 C57.67263316 439.59575381 64.03783601 439.59986208 70.40304565 439.60620499 C88.44355343 439.62381691 106.4840374 439.63304369 124.52455384 439.63154404 C125.49716076 439.63146413 126.46976768 439.63138421 127.47184753 439.63130188 C128.4456395 439.63122012 129.41943148 439.63113836 130.42273229 439.63105412 C146.21356841 439.63024076 162.00430925 439.64939101 177.7951178 439.67757861 C194.0030749 439.70628302 210.2109855 439.72012032 226.41896868 439.71839106 C235.52100174 439.71772641 244.62293486 439.72325157 253.72494507 439.74474716 C261.47248 439.76292664 269.21986966 439.76733285 276.96741664 439.75372832 C280.92149283 439.74718282 284.87529006 439.74713813 288.82933998 439.76443481 C292.44776716 439.7801009 296.06569267 439.77736898 299.68410712 439.75986655 C301.61579664 439.75531922 303.54750131 439.77050442 305.47913122 439.78634584 C306.62507332 439.77714825 307.77101542 439.76795066 308.95168304 439.75847435 C309.94042246 439.75890909 310.92916188 439.75934382 311.9478631 439.75979173 C315.43563261 439.11792339 317.11578113 437.68112996 319.65983582 435.26069641 C321.73331257 431.48601899 321.92741504 428.17369072 321.97868347 423.90986633 C321.99855316 422.64893661 322.01842285 421.3880069 322.03889465 420.08886719 C322.05076918 418.72296829 322.06243215 417.35706754 322.07389832 415.99116516 C322.09262032 414.58582434 322.11219451 413.18049463 322.13258362 411.775177 C322.18380199 408.08784047 322.22348247 404.40046754 322.26072693 400.71296692 C322.30083141 396.94558279 322.35189426 393.17834875 322.40202332 389.41108704 C322.49866056 382.02772665 322.58310401 374.64429335 322.65983582 367.26069641 C323.74595154 366.81266663 324.83206726 366.36463684 325.95109558 365.9030304 C327.39720464 365.29232065 328.84307421 364.68104359 330.28874207 364.06929016 C331.00211731 363.77679382 331.71549255 363.48429749 332.45048523 363.18293762 C338.33758537 360.67050079 342.3979919 357.52254033 346.93717957 352.98335266 C347.50565613 352.4148761 348.07413269 351.84639954 348.65983582 351.26069641 C348.98983582 351.26069641 349.31983582 351.26069641 349.65983582 351.26069641 C349.7528328 362.02288366 349.82375091 372.78497409 349.8670845 383.54748249 C349.88789061 388.5458637 349.91607976 393.54396842 349.96159363 398.54219055 C350.00530153 403.37274044 350.0290253 408.20302567 350.03934479 413.03375816 C350.04669163 414.86961719 350.06103749 416.70546301 350.08275604 418.54120827 C350.2524409 433.48864982 348.56967136 445.92570274 337.77702332 457.23335266 C326.92756258 467.25314875 315.5341908 468.56385986 301.21287537 468.52812195 C299.86143578 468.53186382 298.50999836 468.53646748 297.15856433 468.54185259 C293.46425514 468.55403159 289.77003686 468.55382819 286.0757122 468.55146384 C282.08375035 468.55105438 278.09181715 468.56210711 274.09986877 468.57157898 C266.28613465 468.5881618 258.47243072 468.59368729 250.65868047 468.59480374 C244.30459702 468.59575548 237.95052349 468.59987205 231.59644318 468.60620499 C213.56475578 468.62380978 195.53309214 468.63304502 177.50139609 468.63154404 C176.53016557 468.63146413 175.55893506 468.63138421 174.55827332 468.63130188 C173.58585122 468.63122012 172.61342912 468.63113836 171.61153969 468.63105412 C155.85546162 468.63024138 140.09947918 468.64937804 124.34342876 468.67757861 C108.14886654 468.70633437 91.95435092 468.72011743 75.75976253 468.71839106 C66.67430121 468.7177281 57.58894016 468.72317911 48.50350189 468.74474716 C40.76763791 468.76299439 33.03191966 468.76727727 25.29604343 468.75372832 C21.35309951 468.74721655 17.41043488 468.74701614 13.46751785 468.76443481 C9.85006659 468.78025059 6.23311408 468.77721642 2.61567435 468.75986655 C0.70400632 468.75538215 -1.20767772 468.77038695 -3.11928439 468.78634584 C-16.37899821 468.68147114 -26.95575118 465.46831868 -36.46125793 456.19038391 C-43.94925641 448.30394148 -47.45848895 440.33082627 -47.47438526 429.4898138 C-47.47673749 428.80639102 -47.47908972 428.12296824 -47.48151323 427.41883567 C-47.48819516 425.11797334 -47.48774525 422.8171676 -47.48733521 420.51629639 C-47.49063434 418.85426356 -47.49436001 417.19223154 -47.49847668 415.53020054 C-47.50849927 410.95423766 -47.5122139 406.3782879 -47.51486599 401.80231559 C-47.51876829 396.87029009 -47.52834671 391.93827498 -47.53707886 387.0062561 C-47.55684568 375.09082353 -47.56690989 363.17539011 -47.57580665 351.25994524 C-47.58018931 345.64928974 -47.58555619 340.03863518 -47.59079552 334.42798042 C-47.60780824 315.77763153 -47.62230243 297.12728322 -47.62954426 278.47692776 C-47.63145417 273.63654009 -47.6333745 268.79615242 -47.6353302 263.95576477 C-47.63581394 262.75270382 -47.63629768 261.54964288 -47.63679608 260.31012554 C-47.64509643 240.8212044 -47.67043324 221.33234464 -47.70291088 201.8434503 C-47.73598027 181.83639976 -47.75399293 161.82938042 -47.7571885 141.8223024 C-47.75935373 130.58836916 -47.76810442 119.35452543 -47.79364967 108.12061882 C-47.81535502 98.55323712 -47.82340788 88.98596665 -47.81368289 79.41856312 C-47.80913771 74.53821844 -47.81103725 69.65810328 -47.83044434 64.77779007 C-47.84807305 60.30600456 -47.84708062 55.83461606 -47.83154704 51.36282635 C-47.82917053 49.74902792 -47.83349678 48.13520202 -47.84537569 46.52144556 C-47.93397488 33.6854 -46.27899945 22.98219468 -37.34016418 13.26069641 C-26.38918211 2.17339506 -15.1930305 -0.04610425 0 0 Z " fill="#EAECEE" transform="translate(47.34016418457031,21.739303588867188)"/>
<path d="M0 0 C4.43906935 1.4416794 7.50309917 3.88780695 10.9375 6.9375 C15.45284391 10.8539355 20.02597127 14.65037817 24.75 18.3125 C30.91334283 23.10379125 36.9460683 28.04156157 42.96166992 33.01660156 C46.64120884 36.05878953 50.32813014 39.08755662 54.0625 42.0625 C54.805 42.65675781 55.5475 43.25101563 56.3125 43.86328125 C57.85547936 45.09003955 59.40088327 46.31379138 60.953125 47.52880859 C63.16328539 49.26046529 65.36308683 51.00472157 67.5625 52.75 C68.27865479 53.3056665 68.99480957 53.86133301 69.73266602 54.43383789 C70.39967529 54.96614014 71.06668457 55.49844238 71.75390625 56.046875 C72.35533447 56.51963867 72.9567627 56.99240234 73.57641602 57.47949219 C75.30506594 59.32583616 75.79453153 60.4833951 76 63 C74.32801306 65.31271186 72.6790557 67.29551203 70.75 69.375 C69.62643855 70.63321741 68.50540151 71.89369297 67.38671875 73.15625 C66.81614746 73.79691406 66.24557617 74.43757813 65.65771484 75.09765625 C63.18173719 77.93901382 60.86655109 80.89373893 58.5625 83.875 C54.60588251 88.97090495 50.5812333 94.00329382 46.5 99 C42.36543517 104.06528411 38.27624516 109.16066848 34.25 114.3125 C30.37306673 119.27149653 26.43576991 124.17297445 22.4375 129.03515625 C14.91595501 138.18395857 7.45398396 147.3751997 0.16455078 156.71020508 C-3.87294049 161.86824964 -8.00610197 166.94550117 -12.14868164 172.01928711 C-16.23778145 177.03686818 -20.25752102 182.10459399 -24.22265625 187.22070312 C-25.04979997 188.28324466 -25.88511709 189.33947442 -26.72851562 190.38916016 C-27.59721676 191.48971508 -28.43356766 192.616383 -29.24023438 193.76318359 C-33.59261117 199.55323044 -39.05399671 201.77417904 -45.625 204.5 C-46.78781494 204.99918945 -47.95062988 205.49837891 -49.14868164 206.01269531 C-52.38522385 207.39970443 -55.63216537 208.76058656 -58.88226318 210.11547852 C-61.07797478 211.03256796 -63.27097775 211.95588554 -65.46337891 212.88085938 C-73.90523392 216.4413002 -82.35995836 219.96874911 -90.83259583 223.45532227 C-95.08445768 225.20561008 -99.32671748 226.97664867 -103.5625 228.765625 C-105.35390419 229.51104776 -107.14554411 230.25590448 -108.9375 231 C-109.71085693 231.33225586 -110.48421387 231.66451172 -111.28100586 232.00683594 C-114.25547917 233.2241483 -116.64570716 234.00769157 -119.87890625 233.9375 C-122 233 -122 233 -123.13575745 231.2359314 C-124.12791125 228.66907348 -124.1483334 227.02382943 -123.94897461 224.28759766 C-123.84644127 222.86802261 -123.84644127 222.86802261 -123.74183655 221.41976929 C-123.65042892 220.38663605 -123.5590213 219.35350281 -123.46484375 218.2890625 C-123.37186508 217.19494049 -123.27888641 216.10081848 -123.18309021 214.97354126 C-121.87538594 201.02441194 -119.41037319 187.26615536 -116.93835449 173.48699951 C-116.43059202 170.63378341 -115.93807275 167.77801547 -115.44543552 164.92215538 C-114.96375109 162.13965124 -114.47358511 159.35869408 -113.98075676 156.57814407 C-113.63819985 154.63855861 -113.30186922 152.69787674 -112.9657135 150.75717163 C-111.30115278 141.55857886 -109.35957145 134.99758822 -103 127.9375 C-102.00567323 126.7987394 -101.01355073 125.65805102 -100.0234375 124.515625 C-99.5190918 123.93490234 -99.01474609 123.35417969 -98.49511719 122.75585938 C-96.11957771 119.96603574 -93.87108653 117.08184394 -91.625 114.1875 C-87.64509417 109.07303468 -83.59896941 104.01956454 -79.5 99 C-75.46779835 94.0606564 -71.48188981 89.09180551 -67.5625 84.0625 C-62.88286684 78.06155866 -58.05641321 72.19036363 -53.20263672 66.32983398 C-48.99738913 61.24112617 -44.88862044 56.08650766 -40.82763672 50.88232422 C-37.42484539 46.52559655 -33.94879057 42.23482388 -30.4375 37.96484375 C-22.29398557 28.05951129 -14.23338127 18.09414679 -6.33984375 7.98828125 C-4.24373944 5.3112866 -2.12933061 2.65059861 0 0 Z M-97 150 C-98.29378305 157.2203864 -99.57405053 164.44307798 -100.84521484 171.66748047 C-101.2786723 174.12179997 -101.71515275 176.57558767 -102.15478516 179.02880859 C-102.78835328 182.56730812 -103.41080934 186.10761558 -104.03125 189.6484375 C-104.22811401 190.73426117 -104.42497803 191.82008484 -104.62780762 192.93881226 C-105.74053765 199.36325476 -106.25734343 205.48120045 -106 212 C-99.84843551 211.51607693 -95.33655411 209.4631222 -89.875 206.6875 C-80.78995579 202.20444697 -71.55753171 198.21303989 -62.1875 194.375 C-61.53046082 194.10561615 -60.87342163 193.8362323 -60.19647217 193.5586853 C-56.46742114 192.03143389 -52.73516406 190.51223436 -49 189 C-50.32210291 185.9881398 -51.63389503 184.19459869 -54.203125 182.15234375 C-54.84660889 181.63526855 -55.49009277 181.11819336 -56.15307617 180.58544922 C-57.19105347 179.76971436 -57.19105347 179.76971436 -58.25 178.9375 C-58.96583252 178.36531738 -59.68166504 177.79313477 -60.41918945 177.20361328 C-65.54731482 173.11403104 -70.71407749 169.07208054 -75.89477539 165.04931641 C-78.87563352 162.72168556 -81.79361792 160.34315927 -84.65625 157.87109375 C-85.24897705 157.35949707 -85.8417041 156.84790039 -86.45239258 156.32080078 C-87.58324496 155.33776912 -88.70840859 154.34814277 -89.8269043 153.35107422 C-92.93251238 150.53880394 -92.93251238 150.53880394 -97 150 Z " fill="#ECEEF0" transform="translate(398,149)"/>
<path d="M0 0 C1.39557465 -0.00807831 1.39557465 -0.00807831 2.81934273 -0.01631981 C5.93846286 -0.03063295 9.0571606 -0.02348728 12.17630005 -0.01637268 C14.41196026 -0.02207452 16.64761757 -0.02903805 18.88327026 -0.03717041 C24.95767249 -0.05513836 31.03193054 -0.05392646 37.10635138 -0.04822803 C42.1760227 -0.04514116 47.24566613 -0.0512231 52.31533349 -0.05726677 C64.95924192 -0.07212652 77.60306339 -0.06848848 90.2469653 -0.05640347 C101.22214528 -0.04647355 112.19715661 -0.05940731 123.17231058 -0.08333766 C134.44665089 -0.10773475 145.7209147 -0.11693527 156.99528801 -0.11068493 C163.32294996 -0.10731194 169.65047259 -0.10975318 175.97811508 -0.12693596 C181.92893958 -0.14238956 187.8794419 -0.1384668 193.8302536 -0.11963081 C196.01394463 -0.11594046 198.19765944 -0.11906634 200.38132858 -0.1295166 C203.3633154 -0.14269736 206.34423115 -0.13120422 209.32617188 -0.11352539 C210.1895076 -0.1231304 211.05284332 -0.1327354 211.94234073 -0.14263147 C217.69458252 -0.07250799 221.0702939 1.04685936 225.79006958 4.38768005 C228.77725963 8.72392368 229.34801946 12.18014785 228.79006958 17.38768005 C227.33836259 20.98238308 225.86004891 23.95727975 222.79006958 26.38768005 C218.78240495 27.72356826 214.92421709 27.54271452 210.74472046 27.54830933 C209.8078791 27.55339715 208.87103775 27.55848497 207.90580726 27.56372696 C204.75297172 27.57947746 201.60015914 27.58798334 198.44729614 27.59642029 C196.19222873 27.60595654 193.9371628 27.6158476 191.68209839 27.62606812 C184.2649815 27.65747578 176.84785331 27.67772056 169.43069458 27.6962738 C167.5390144 27.70121979 167.5390144 27.70121979 165.60911846 27.70626569 C153.71993341 27.73704424 141.8307453 27.76391829 129.94153214 27.78068447 C127.18824505 27.78463391 124.43495805 27.78863692 121.68167114 27.79270935 C120.99736242 27.79371771 120.3130537 27.79472607 119.60800835 27.79576499 C108.52272442 27.81277181 97.43766373 27.85388212 86.35248879 27.90473234 C74.96973667 27.95651787 63.58714184 27.98514539 52.20425773 27.99288136 C45.81385061 27.99784269 39.42384039 28.01297044 33.03354645 28.05262566 C27.02194508 28.08943936 21.01096816 28.09791855 14.99927521 28.08461952 C12.79298405 28.08467356 10.58666559 28.09500408 8.38047791 28.11637115 C5.36734679 28.14399338 2.35650244 28.13456991 -0.65664673 28.11593628 C-1.52912859 28.13273121 -2.40161045 28.14952614 -3.30053115 28.16683 C-8.93666098 28.07976569 -11.83274082 26.77063467 -15.9168818 22.8698898 C-18.83881871 19.52050039 -18.54044637 16.19831161 -18.49118042 11.9306488 C-18.07811798 8.19587587 -16.7011871 6.14826178 -14.20993042 3.38768005 C-9.65640241 -0.21287958 -5.55309011 -0.03845867 0 0 Z " fill="#EDEFF1" transform="translate(93.20993041992188,123.61231994628906)"/>
<path d="M0 0 C1.34172981 -0.00384491 1.34172981 -0.00384491 2.71056527 -0.0077675 C5.7078769 -0.01270898 8.70468484 0.0037937 11.70195007 0.02018738 C13.8504434 0.02103357 15.9989376 0.02055866 18.14743042 0.01885986 C23.98173485 0.01799818 29.81585471 0.03565206 35.65011621 0.05658174 C41.74666426 0.07531966 47.84321641 0.0770967 53.93978882 0.08065796 C65.48526851 0.08998689 77.0306631 0.11461222 88.5761053 0.14470643 C101.7198528 0.17822399 114.86360435 0.1947298 128.00738394 0.20979273 C155.04583795 0.24116098 182.0842164 0.29393803 209.12260437 0.36076355 C207.28658964 3.4601344 205.44730871 6.35199509 203.16166687 9.1381073 C202.33022156 10.15614441 202.33022156 10.15614441 201.48197937 11.19474792 C200.90963562 11.88890808 200.33729187 12.58306824 199.74760437 13.29826355 C198.90069031 14.333703 198.90069031 14.333703 198.03666687 15.39006042 C196.40343559 17.38434168 194.76596576 19.37482055 193.12260437 21.36076355 C192.4287306 22.37775455 191.73485683 23.39474556 191.01995659 24.44255447 C188.72819165 27.16721861 188.18675427 27.34762983 184.43467903 28.11581039 C182.97401729 28.14867758 181.51238951 28.14869741 180.05158997 28.12266541 C179.24371343 28.13202535 178.4358369 28.14138529 177.60347927 28.15102887 C174.89841003 28.17494749 172.19536412 28.15601238 169.49028015 28.13713074 C167.55017413 28.14526167 165.61007737 28.15594516 163.66999817 28.16899109 C158.40116658 28.19636074 153.13303936 28.18573133 147.86419535 28.16671658 C142.3501231 28.1515307 136.83611135 28.16561294 131.32203674 28.17503357 C122.05964834 28.18595273 112.79754687 28.1715571 103.53520203 28.14299011 C92.83034112 28.11035512 82.12616619 28.12089861 71.42132199 28.15394855 C62.22962075 28.18119009 53.03812586 28.18501138 43.84639728 28.16931653 C38.35704426 28.15996734 32.86801344 28.15870112 27.37868118 28.17853546 C22.21558722 28.19588727 17.05337581 28.1838105 11.89037704 28.14916992 C9.9969606 28.14124573 8.1034697 28.14349914 6.21008301 28.15674591 C3.62158648 28.17318403 1.03590397 28.15253793 -1.55241394 28.12266541 C-2.29902121 28.13604974 -3.04562849 28.14943407 -3.81486022 28.16322398 C-9.02575336 28.0468436 -11.71830376 26.43791745 -15.54116452 22.93944669 C-18.35422159 19.61597537 -18.21250876 15.7866481 -18.15864563 11.6459198 C-17.60782059 7.17046632 -15.23603648 4.42801503 -11.78770161 1.71924877 C-7.78476421 -0.14925967 -4.36556756 -0.04576027 0 0 Z " fill="#EDEFF1" transform="translate(92.87739562988281,202.6392364501953)"/>
<path d="M0 0 C5.35840394 4.12934345 10.50688551 8.51078558 15.640625 12.9140625 C19.01215579 15.80014201 22.46882097 18.56972844 25.9453125 21.328125 C29.62624777 24.26056925 33.28299663 27.22221764 36.9375 30.1875 C37.93583862 30.99550049 37.93583862 30.99550049 38.9543457 31.81982422 C40.89241394 33.3933149 42.82170992 34.97704993 44.75 36.5625 C45.40178223 37.08811523 46.05356445 37.61373047 46.72509766 38.15527344 C47.34819824 38.66864258 47.97129883 39.18201172 48.61328125 39.7109375 C49.16927002 40.16388184 49.72525879 40.61682617 50.2980957 41.08349609 C53.3901128 44.2332253 54.10049061 47.43291635 54.25 51.75 C54.3015625 52.63042969 54.353125 53.51085937 54.40625 54.41796875 C52.74131678 62.39577374 45.87108471 69.08245142 40.75 75.1875 C40.15960938 75.8990625 39.56921875 76.610625 38.9609375 77.34375 C35.26648183 81.78686189 31.51996639 86.18336221 27.75 90.5625 C22.76222857 87.39058911 18.27792023 83.79254632 13.75 80 C8.47161329 75.61347863 3.16883765 71.27442909 -2.25 67.0625 C-8.23091637 62.40827534 -14.07892603 57.60481505 -19.91381836 52.76928711 C-25.05721806 48.51698067 -30.27687375 44.37620593 -35.54345703 40.27807617 C-39.91997501 36.85855851 -44.14257597 33.30000074 -48.25 29.5625 C-43.73394684 23.43845821 -39.03580563 17.47744308 -34.25 11.5625 C-33.46753906 10.59183594 -32.68507813 9.62117188 -31.87890625 8.62109375 C-31.09386719 7.65300781 -30.30882812 6.68492188 -29.5 5.6875 C-28.78328125 4.80320312 -28.0665625 3.91890625 -27.328125 3.0078125 C-18.98005131 -6.81529677 -10.37798697 -7.34604601 0 0 Z " fill="#EBEDEF" transform="translate(458.25,105.4375)"/>
<path d="M0 0 C1.01096207 -0.00512655 1.01096207 -0.00512655 2.04234761 -0.01035666 C4.29365799 -0.01692899 6.54376772 0.00502769 8.79496765 0.0269165 C10.41144787 0.02804513 12.02793015 0.02741082 13.64440918 0.02514648 C18.02845069 0.023999 22.41205429 0.04751376 26.79599404 0.07544231 C31.37905929 0.10045026 35.96213462 0.10279749 40.54525757 0.10754395 C49.22209985 0.11997551 57.89874049 0.15279956 66.57549399 0.1929419 C76.45447451 0.23765399 86.33346467 0.25964524 96.2125212 0.27972364 C116.53267773 0.32153203 136.85265276 0.39188762 157.1726532 0.48101807 C156.60973867 9.64293724 154.96468832 18.49830113 153.1726532 27.48101807 C132.54529645 27.57446373 111.91797462 27.64499844 91.29044914 27.68826675 C81.71270039 27.70889108 72.13508316 27.73700922 62.55741882 27.78277588 C54.20941967 27.8226476 45.86151577 27.84845182 37.51342404 27.85737205 C33.0932245 27.86258623 28.67329747 27.87483871 24.25318527 27.90393829 C20.09173173 27.93111273 15.93066264 27.93945901 11.7691288 27.93344879 C10.24292346 27.93454813 8.7167051 27.94249017 7.19057655 27.95783997 C5.10339325 27.97780098 3.01765326 27.97293674 0.93043518 27.96203613 C-0.23655474 27.9657233 -1.40354465 27.96941048 -2.6058979 27.97320938 C-7.42129032 27.23748629 -10.56557084 24.95309003 -13.7023468 21.29351807 C-15.67516861 16.36146355 -15.70906052 11.56928741 -13.6398468 6.66851807 C-9.49398543 1.66489227 -6.544277 -0.02002839 0 0 Z " fill="#EDEFF1" transform="translate(89.82734680175781,281.51898193359375)"/>
<path d="M0 0 C1.28170074 -0.00137466 2.56340149 -0.00274933 3.88394165 -0.00416565 C5.31234764 -0.00062626 6.7407534 0.00300855 8.16915894 0.00672913 C9.66697182 0.00701107 11.16478485 0.00685312 12.66259766 0.00628662 C16.73674149 0.00599893 20.81085606 0.01189113 24.88499308 0.01886058 C29.13977823 0.02509878 33.39456401 0.02569829 37.64935303 0.02688599 C45.70996707 0.02999792 53.7705676 0.03820946 61.83117568 0.04823548 C71.00637817 0.05940088 80.18158129 0.06490814 89.35678887 0.06993091 C108.23419485 0.08039218 127.11158742 0.09818968 145.98898315 0.12025452 C145.32898315 9.03025452 144.66898315 17.94025452 143.98898315 27.12025452 C124.66545771 27.21286481 105.34199499 27.28424029 86.01829338 27.3275032 C77.04588133 27.34812519 68.07360974 27.37623881 59.10128784 27.42201233 C51.28066575 27.46189126 43.46014539 27.48768998 35.63942444 27.4966085 C31.49867352 27.50182148 27.35821362 27.51406612 23.217556 27.54317474 C19.3187439 27.57036068 15.4203422 27.57869319 11.52144432 27.57268524 C10.09199098 27.57378407 8.66252366 27.58171938 7.23315239 27.59707642 C-6.14471051 27.7337353 -6.14471051 27.7337353 -11.01101685 23.12025452 C-14.34372717 19.34318282 -14.63095548 15.5056336 -14.5071106 10.63197327 C-13.67891523 6.43882663 -11.20864709 3.82912781 -8.01101685 1.12025452 C-5.26348447 -0.25351167 -3.07641595 -0.00253412 0 0 Z " fill="#EDEFF0" transform="translate(89.01101684570313,360.87974548339844)"/>
</svg>
