<?xml version="1.0" encoding="utf-8"?>
<!-- Generator: Adobe Illustrator 24.3.0, SVG Export Plug-In . SVG Version: 6.00 Build 0)  -->
<svg version="1.1" id="Layer_1" xmlns="http://www.w3.org/2000/svg" xmlns:xlink="http://www.w3.org/1999/xlink" x="0px" y="0px"
	 viewBox="0 0 200 200" enable-background="new 0 0 200 200" xml:space="preserve">
<path fill="#eef0f2" d="M113.032,108.198c-1,0-2-0.3-2.9-0.9l-10-7.3l-10,7.3c-1.7,1.2-4.1,1.2-5.8,0c-1.7-1.2-2.4-3.4-1.8-5.5
	l3.9-11.8l-10-7.2c-1.7-1.2-2.4-3.4-1.8-5.5c0.7-2,2.5-3.4,4.7-3.4h12.4l3.8-11.8c0.7-2,2.5-3.4,4.7-3.4c2.1,0,4,1.4,4.7,3.4
	l3.7,11.9h12.4c2.1,0,4,1.4,4.7,3.4c0.7,2-0.1,4.2-1.8,5.5l-10,7.3l3.9,11.8c0.7,2,0,4.2-1.8,5.5
	C115.132,107.898,114.132,108.198,113.032,108.198z M100.232,95.498c0.4,0,0.8,0.1,1.2,0.4l11.2,8.2c0.4,0.3,0.7,0.3,1.1,0
	c0.3-0.2,0.5-0.6,0.3-1l-4.4-13.2c-0.3-0.8,0-1.7,0.7-2.2l11.2-8.1c0.3-0.2,0.4-0.6,0.3-1c-0.1-0.4-0.5-0.6-0.9-0.6h-13.8
	c-0.9,0-1.6-0.6-1.9-1.4l-4.2-13.2c-0.2-0.8-1.5-0.8-1.7,0l-4.2,13.2c-0.3,0.8-1,1.4-1.9,1.4h-13.8c-0.4,0-0.7,0.2-0.9,0.6
	c-0.1,0.4,0,0.8,0.3,1l11.2,8.1c0.7,0.5,1,1.4,0.7,2.2l-4.3,13.1c-0.1,0.4,0,0.8,0.3,1c0.5,0.4,0.8,0.2,1.1,0l11.2-8.2
	C99.332,95.698,99.732,95.498,100.232,95.498z"/>
<path fill="#eef0f2" d="M119.632,156.598c-0.4,0-0.9-0.1-1.2-0.4l-17.9-13.9l-17.9,13.9c-0.6,0.5-1.4,0.5-2.1,0.2
	c-0.7-0.3-1.1-1-1.1-1.8v-29.9c-14.1-7.7-22.8-22.2-22.8-38.3c0-24.1,19.6-43.7,43.7-43.7c24.1,0,43.7,19.6,43.7,43.7
	c0,15.9-8.5,30.4-22.4,38.1v30.1c0,0.8-0.4,1.5-1.1,1.8C120.232,156.498,119.932,156.598,119.632,156.598z M100.532,137.798
	c0.4,0,0.9,0.1,1.2,0.4l15.9,12.3v-27c0-0.2,0-0.3,0-0.5c0.1-0.6,0.5-1.2,1-1.5c13.2-6.8,21.4-20.3,21.4-35.1
	c0-21.9-17.8-39.7-39.7-39.7c-21.9,0-39.7,17.8-39.7,39.7c0,15,8.3,28.5,21.6,35.4c0.7,0.3,1.1,1,1.1,1.8v27l15.9-12.3
	C99.632,137.898,100.032,137.798,100.532,137.798z"/>
</svg>
