<?xml version="1.0" encoding="UTF-8"?>
<svg version="1.1" xmlns="http://www.w3.org/2000/svg" width="512" height="512">
<path d="M0 0 C0.9075 -0.01289062 1.815 -0.02578125 2.75 -0.0390625 C12.51325158 1.95583265 19.11152502 8.01647913 25.91404724 14.91758728 C26.86818866 15.86739162 27.8234212 16.81610088 28.77963692 17.76381689 C31.38489679 20.35218601 33.97446308 22.95576207 36.56156671 25.56226146 C39.36158077 28.37776849 42.17605508 31.17875818 44.98869324 33.98164368 C50.48793997 39.46639654 55.97376339 44.96438727 61.45503449 50.46709817 C67.84082227 56.87694225 74.23949888 63.27385545 80.63862301 69.67038078 C92.05488652 81.08295783 103.45886705 92.50773067 114.85620117 103.93920898 C125.91322393 115.02934404 136.9796863 126.10994803 148.05639648 137.18041992 C160.12583292 149.24309238 172.19063892 161.31035703 184.24685818 173.38624102 C184.88430993 174.02473225 185.52176168 174.66322349 186.17853015 175.32106294 C187.45875514 176.60337879 188.73897006 177.88570469 190.0191748 179.16804076 C194.47482424 183.630584 198.93357895 188.09001017 203.39340019 192.54838371 C208.82622082 197.97976472 214.25343946 203.41667317 219.67367982 208.8606097 C222.43893994 211.63772867 225.20651409 214.41242972 227.98062134 217.18071365 C230.52011696 219.71503575 233.05256802 222.25618293 235.5795821 224.80294902 C236.92792719 226.15827513 238.28361903 227.50628011 239.63956064 228.85400623 C245.90953583 235.19487508 249.42399997 239.78499631 249.5 249 C249.32237453 256.88502634 247.68141837 260.81516006 242.3203125 266.36328125 C236.4615303 271.81845846 230.99240169 272.81626598 223.171875 273.18359375 C214.34886441 271.6297877 207.83713335 266.24954521 201.625 260.125 C200.89603516 259.4230249 200.16707031 258.7210498 199.41601562 257.99780273 C193.95411694 252.6902255 188.7441583 247.17762079 183.640625 241.52734375 C178.77386831 236.17823099 173.73207833 231.10031778 168.23828125 226.3984375 C163.83901581 222.57143423 159.88724529 218.40804096 155.9375 214.125 C146.84931464 204.23708569 146.84931464 204.23708569 137 195.125 C131.85697747 190.67564139 127.12043652 185.9704495 122.6875 180.8125 C117.28361012 174.56046597 111.4614833 168.71636634 105.18359375 163.34375 C100.82286434 159.55619474 96.9113602 155.43117303 93 151.1875 C83.3837013 140.78317441 83.3837013 140.78317441 73.00390625 131.15625 C68.67143438 127.42365885 64.810951 123.32530865 60.9375 119.125 C51.84931464 109.23708569 51.84931464 109.23708569 42 100.125 C36.85697747 95.67564139 32.12043652 90.9704495 27.6875 85.8125 C21.05431366 78.1382306 13.73192762 71.17721083 6 64.625 C4.66645088 63.47941781 3.33310633 62.33359743 2 61.1875 C1.01 60.341875 0.02 59.49625 -1 58.625 C-1.33128906 59.04007813 -1.66257813 59.45515625 -2.00390625 59.8828125 C-6.71016248 65.52088387 -11.98641573 70.43151284 -17.36938477 75.40527344 C-23.60667987 81.16944783 -29.72604708 86.96424242 -35.2578125 93.41796875 C-38.88536801 97.586662 -42.80438851 101.33212751 -46.875 105.0625 C-48.28871497 106.37397178 -49.70148168 107.68646651 -51.11328125 109 C-52.1199585 109.93585938 -52.1199585 109.93585938 -53.14697266 110.890625 C-58.05358664 115.48306054 -62.80661276 120.16073978 -67.125 125.3125 C-71.16125616 130.02616978 -75.74998072 134.13283113 -80.30126953 138.3371582 C-86.87391558 144.41167888 -93.43252295 150.50381834 -99.1875 157.375 C-103.79093837 162.76572474 -109.13801963 167.41950877 -114.3359375 172.22265625 C-119.86881914 177.34092553 -125.28052599 182.5307785 -130.125 188.3125 C-134.16125616 193.02616978 -138.74998072 197.13283113 -143.30126953 201.3371582 C-149.87391558 207.41167888 -156.43252295 213.50381834 -162.1875 220.375 C-166.19858062 225.07043561 -170.77251117 229.15362023 -175.30151367 233.33740234 C-181.94189706 239.47446428 -188.53332303 245.64472464 -194.375 252.5625 C-201.80636006 261.16539212 -211.01861219 271.3527417 -222.78515625 273.01953125 C-229.57411444 273.27166587 -235.54421175 272.37850533 -240.94140625 268.078125 C-245.57530365 263.7054285 -248.6216323 259.51951289 -249.46875 253.0390625 C-249.4790625 251.78867187 -249.489375 250.53828125 -249.5 249.25 C-249.5309375 248.00476563 -249.561875 246.75953125 -249.59375 245.4765625 C-248.19175166 236.38202065 -241.08562679 230.2775983 -234.81025696 224.04084778 C-233.88199055 223.10649027 -232.95372415 222.17213276 -231.99732846 221.20946139 C-229.43507705 218.6308802 -226.8636208 216.0616579 -224.29046071 213.49396861 C-221.51127892 210.71746559 -218.74073472 207.93236526 -215.9690094 205.14842224 C-210.54322007 199.70161331 -205.10923626 194.26305223 -199.67203579 188.82763652 C-195.25154559 184.40845556 -190.83362531 179.98672129 -186.41750145 175.56317711 C-185.14391749 174.28749389 -183.87033271 173.01181151 -182.5967471 171.73612994 C-181.96279104 171.10113036 -181.32883499 170.46613077 -180.67566814 169.81188878 C-168.69480786 157.81214054 -156.70400315 145.82236735 -144.71028384 133.8354738 C-133.74572297 122.87648883 -122.79442372 111.90435908 -111.84921739 100.92604689 C-100.60131982 89.64439318 -89.3441456 78.37207206 -78.07704705 67.10959357 C-71.75528794 60.790077 -65.43730902 54.46688827 -59.12914467 48.1337986 C-53.75921699 42.74283317 -48.38062535 37.36069898 -42.99073539 31.98968891 C-40.24292312 29.25101859 -37.49923477 26.50853604 -34.76635742 23.75495529 C-31.79927543 20.76564573 -28.81305845 17.79620214 -25.82466125 14.82820129 C-24.97006406 13.96108625 -24.11546686 13.0939712 -23.23497277 12.20057994 C-16.84762187 5.90620192 -9.4253452 -0.13388274 0 0 Z " fill="#EAECEE" transform="translate(254,121.375)"/>
</svg>
