<?xml version="1.0" standalone="no"?>
<!DOCTYPE svg PUBLIC "-//W3C//DTD SVG 20010904//EN"
 "http://www.w3.org/TR/2001/REC-SVG-20010904/DTD/svg10.dtd">
<svg version="1.0" xmlns="http://www.w3.org/2000/svg"
 width="3000.000000pt" height="2000.000000pt" viewBox="0 0 3000.000000 2000.000000"
 preserveAspectRatio="xMidYMid meet">

<g transform="translate(0.000000,2000.000000) scale(0.100000,-0.100000)"
fill="#a2999e" stroke="none">
<path d="M13945 11355 c-109 -28 -203 -82 -285 -165 -89 -89 -133 -169 -157
-285 -32 -156 11 -300 121 -411 100 -99 224 -143 372 -131 159 14 220 72 231
223 l6 73 -79 74 -78 74 17 45 c21 55 47 80 110 108 184 82 460 -13 585 -200
l42 -62 0 -193 c0 -168 -3 -202 -21 -261 -82 -267 -275 -480 -579 -642 -258
-138 -548 -230 -875 -279 -171 -25 -663 -25 -895 0 -460 51 -790 116 -1350
267 -854 231 -1413 334 -2706 500 -259 33 -619 80 -800 104 -679 92 -938 112
-1359 103 -632 -14 -1081 -92 -1740 -302 -413 -132 -1026 -306 -1270 -362
-383 -86 -728 -129 -1125 -140 -607 -16 -979 88 -1165 324 -36 47 -115 188
-115 206 0 9 69 46 73 39 2 -4 14 -39 26 -78 40 -126 113 -187 226 -188 207 0
321 252 184 408 -92 105 -308 185 -496 186 -184 0 -319 -83 -400 -247 -35 -71
-37 -81 -41 -192 -5 -136 8 -196 65 -301 112 -207 333 -376 578 -443 33 -9
105 -23 160 -31 425 -65 844 -55 1350 30 620 105 1357 305 1900 519 146 57
215 76 215 60 0 -2 -20 -32 -44 -67 -98 -142 -130 -243 -124 -396 5 -127 25
-190 92 -291 113 -170 304 -299 546 -369 115 -33 341 -42 445 -18 214 51 356
182 401 372 36 156 0 270 -101 320 -55 26 -59 27 -193 21 -77 -3 -170 -14
-212 -24 -51 -12 -114 -18 -195 -18 -114 0 -123 1 -173 29 -53 30 -112 96
-112 125 0 30 48 116 81 148 19 17 79 59 134 94 411 257 867 350 1650 336 648
-12 1475 -125 1985 -272 63 -19 329 -107 590 -198 827 -286 1826 -598 2252
-702 517 -127 1014 -182 1431 -157 247 14 367 32 563 82 365 93 698 268 925
487 131 127 219 248 304 421 36 72 72 132 78 132 7 0 38 -53 69 -117 147 -307
353 -521 673 -701 304 -171 642 -267 1060 -302 559 -46 1270 64 2190 341 259
78 1148 373 1520 504 427 150 727 237 1074 310 441 92 1051 159 1561 172 751
18 1262 -89 1635 -341 156 -106 205 -161 205 -232 0 -57 -139 -155 -240 -169
-30 -4 -100 3 -205 20 -195 33 -357 43 -409 25 -50 -16 -95 -56 -117 -105 -24
-52 -25 -180 -3 -256 72 -243 268 -359 603 -359 270 0 489 95 692 299 78 79
103 112 137 181 97 197 75 372 -78 612 -27 43 -36 64 -26 66 7 2 55 -13 107
-31 348 -127 449 -163 593 -208 303 -95 821 -231 1116 -294 402 -84 813 -122
1250 -112 193 4 283 10 370 26 408 72 690 282 795 592 33 96 35 230 4 322 -72
217 -262 333 -490 299 -80 -11 -289 -77 -360 -113 -179 -90 -167 -378 18 -456
52 -21 151 -17 203 10 51 25 106 106 117 169 8 51 24 72 51 64 33 -11 35 -39
8 -106 -34 -82 -106 -182 -169 -232 -106 -84 -300 -159 -497 -192 -516 -85
-1195 -23 -2022 184 -290 73 -540 148 -993 299 -802 266 -1591 345 -2550 256
-215 -21 -346 -38 -693 -91 -160 -24 -424 -60 -585 -79 -1116 -133 -1641 -231
-2800 -521 -870 -217 -1125 -260 -1607 -271 -386 -8 -630 14 -896 82 -251 64
-484 167 -697 308 -238 158 -361 319 -424 555 -23 86 -26 116 -27 272 0 156 2
180 20 220 47 103 165 194 282 219 29 6 113 11 186 11 131 0 134 0 173 -29 59
-42 83 -78 83 -120 -1 -32 -7 -41 -54 -76 -79 -59 -101 -95 -101 -170 0 -52 4
-67 29 -99 64 -84 166 -122 305 -114 67 4 93 11 156 42 194 96 287 292 245
517 -32 170 -189 339 -385 415 -240 93 -745 -13 -981 -205 -73 -60 -115 -91
-124 -91 -4 0 -46 31 -94 69 -209 170 -433 247 -741 256 -114 4 -165 1 -210
-10z m-2325 -2130 c746 -125 1021 -155 1416 -155 335 0 565 28 863 106 73 19
136 33 138 30 9 -9 -139 -77 -240 -111 -555 -185 -1268 -171 -2122 41 -259 64
-500 135 -524 153 l-25 19 25 -4 c13 -2 224 -38 469 -79z m7219 71 c-2 -2
-128 -40 -279 -84 -582 -169 -926 -228 -1390 -239 -395 -9 -680 25 -945 113
-106 35 -211 81 -203 89 2 2 112 -16 243 -40 280 -51 384 -64 595 -72 285 -10
507 13 1375 146 632 97 611 94 604 87z"/>
</g>
</svg>
