<?xml version="1.0" encoding="UTF-8"?>
<svg version="1.1" xmlns="http://www.w3.org/2000/svg" width="512" height="512">
<path d="M0 0 C3.60207478 1.95204462 5.67958959 4.03876878 7 8 C7.55185716 13.84968588 6.47444936 16.3519072 3 21 C1.13409193 22.9523177 -0.73463807 24.82928253 -2.6875 26.6875 C-7.46933203 31.34752515 -11.77659698 36.20221248 -15.93359375 41.4375 C-17.81820886 43.77456524 -19.77781751 45.98151981 -21.8125 48.1875 C-72.12174928 104.35127731 -106.5115955 179.75299733 -133.875 249.1875 C-134.28819992 250.2354776 -134.28819992 250.2354776 -134.70974731 251.30462646 C-137.29475172 257.877394 -139.8439277 264.45534964 -142.16015625 271.12890625 C-142.46904785 272.01231689 -142.77793945 272.89572754 -143.09619141 273.8059082 C-143.63097166 275.35950227 -144.14951658 276.91885312 -144.64599609 278.48510742 C-146.80387426 284.80005206 -150.70651848 287.72847824 -156.32958984 290.84594727 C-157.5358938 291.42810244 -158.74658436 292.00123342 -159.9609375 292.56640625 C-160.62006638 292.88202011 -161.27919525 293.19763397 -161.95829773 293.52281189 C-163.36552287 294.19555319 -164.7745877 294.86445784 -166.18533325 295.52978516 C-169.15771744 296.93165385 -172.12108268 298.352115 -175.08503723 299.771698 C-176.58278694 300.48888556 -178.08098685 301.20513371 -179.57963562 301.92044067 C-187.09949122 305.51267783 -194.58513463 309.17576852 -201.98217773 313.015625 C-206.17229817 315.17902023 -210.20479582 317.15547938 -214.7109375 318.56640625 C-220.60949002 320.55931269 -224.56728833 322.22340934 -227.53564453 327.97607422 C-230.72064755 335.7778706 -233.0094012 343.82020154 -235 352 C-234.18321777 351.98428955 -233.36643555 351.9685791 -232.52490234 351.95239258 C-228.80833923 351.8898606 -225.09188704 351.85095056 -221.375 351.8125 C-220.08980469 351.78736328 -218.80460937 351.76222656 -217.48046875 351.73632812 C-216.23652344 351.72666016 -214.99257812 351.71699219 -213.7109375 351.70703125 C-212.56931152 351.6913208 -211.42768555 351.67561035 -210.25146484 351.65942383 C-205.92155358 352.11296236 -202.55224899 353.55098847 -199.35546875 356.53515625 C-196.48577719 360.28782983 -194.89576233 362.3772598 -194.82421875 367.0703125 C-194.80037109 367.885 -194.77652344 368.6996875 -194.75195312 369.5390625 C-194.70957455 371.2393424 -194.67800933 372.93993238 -194.65820312 374.640625 C-194.42561063 381.54267194 -192.95176395 387.0762414 -187.94140625 392.0390625 C-187.15636719 392.56242187 -186.37132812 393.08578125 -185.5625 393.625 C-184.60988281 394.27726562 -183.65726563 394.92953125 -182.67578125 395.6015625 C-180.63880172 396.93922791 -178.59336596 398.2635306 -176.54833984 399.58886719 C-174.7185009 400.7760229 -172.8911918 401.96708525 -171.06616211 403.16162109 C-169.22741844 404.36194531 -167.38083329 405.5503658 -165.52563477 406.72509766 C-156.76404035 412.41895694 -150.10177314 418.78960076 -147 429 C-146.44450837 433.48426052 -146.43860976 437.91928705 -146.46875 442.43359375 C-146.4649231 443.70670914 -146.46109619 444.97982452 -146.45715332 446.29151917 C-146.45444095 448.97396196 -146.45971012 451.65492825 -146.47851562 454.3371582 C-146.50128146 457.74756181 -146.48817826 461.15670415 -146.46422577 464.56706142 C-146.44615934 467.85594836 -146.45887119 471.14469023 -146.46875 474.43359375 C-146.46065308 475.64430038 -146.45255615 476.85500702 -146.44421387 478.10240173 C-146.55758597 488.45552915 -148.80715534 496.58428822 -156 504.2421875 C-162.27323753 509.75577517 -168.63474371 512.11347206 -176.88725281 512.14717102 C-178.09138321 512.15432632 -179.29551361 512.16148163 -180.53613281 512.16885376 C-181.85411865 512.17154266 -183.17210449 512.17423157 -184.5300293 512.17700195 C-185.93471951 512.18326983 -187.33940808 512.18991691 -188.74409485 512.19691467 C-193.35412448 512.21792091 -197.96415431 512.2283146 -202.57421875 512.23828125 C-204.16390309 512.24233024 -205.75358726 512.24644721 -207.34327126 512.25063133 C-214.81357112 512.26967633 -222.28386115 512.28390819 -229.75418061 512.2922433 C-238.36451375 512.30201014 -246.97458943 512.32831797 -255.58483189 512.36874419 C-262.24826987 512.39895137 -268.91163425 512.41371657 -275.57513934 512.41702431 C-279.5510351 512.41936976 -283.52665561 512.42826382 -287.50247765 512.45348549 C-291.24625083 512.47685183 -294.98956919 512.48096547 -298.73339653 512.47072411 C-300.75104557 512.46999665 -302.76867196 512.48902787 -304.78622437 512.50878906 C-315.29565845 512.44888607 -322.497076 510.11328373 -330.2109375 502.921875 C-338.30258174 494.22954101 -339.31015574 485.31052898 -339.30078125 473.85546875 C-339.30506638 472.69050369 -339.3093515 471.52553864 -339.31376648 470.32527161 C-339.31949489 467.86683805 -339.32002105 465.40838756 -339.31567383 462.94995117 C-339.31251938 459.21047679 -339.33597392 455.47179829 -339.36132812 451.73242188 C-339.36360197 449.33593849 -339.36430422 446.939453 -339.36328125 444.54296875 C-339.372491 443.4353569 -339.38170074 442.32774506 -339.39118958 441.18656921 C-339.33395111 431.46634839 -337.80522323 422.94076569 -331.43066406 415.32177734 C-326.04263491 410.17511631 -319.62308271 406.32512887 -313.375 402.3125 C-311.25766464 400.94358321 -309.14373571 399.57018362 -307.03677368 398.18534851 C-305.73531217 397.33073731 -304.42784139 396.48517778 -303.1133728 395.65071106 C-298.11337794 392.38024582 -293.9466515 388.83995451 -292 383 C-291.83609103 379.31751184 -291.70400813 375.64085414 -291.65820312 371.95507812 C-291.45439007 366.2720117 -290.27126616 361.72423619 -287 357 C-281.99615405 353.0173471 -278.31868905 351.87161615 -272.01953125 351.90234375 C-270.85615234 351.90556641 -269.69277344 351.90878906 -268.49414062 351.91210938 C-267.27919922 351.92048828 -266.06425781 351.92886719 -264.8125 351.9375 C-263.58595703 351.94201172 -262.35941406 351.94652344 -261.09570312 351.95117188 C-258.06375332 351.96296935 -255.03190094 351.97943079 -252 352 C-251.82911865 351.25266602 -251.6582373 350.50533203 -251.48217773 349.73535156 C-250.26721081 344.62725183 -248.98008944 339.679696 -247.03515625 334.796875 C-246.71095703 333.96027344 -246.38675781 333.12367188 -246.05273438 332.26171875 C-245.39413202 330.59118101 -244.70655136 328.93177198 -243.99023438 327.28515625 C-240.76319852 318.66652879 -243.41138309 311.40060448 -246 303 C-246.5283679 301.2060436 -247.05386444 299.41123971 -247.5769043 297.61572266 C-249.60188025 290.69343926 -251.64826013 283.77737923 -253.7409668 276.87524414 C-254.63830677 273.90876614 -255.51779375 270.93746567 -256.39453125 267.96484375 C-256.67150345 267.06684555 -256.94847565 266.16884735 -257.23384094 265.24363708 C-260.20294392 255.05887489 -256.98200745 247.61706195 -253.1875 238.0625 C-252.94457214 237.44840271 -252.70164429 236.83430542 -252.45135498 236.20159912 C-239.37517188 203.28627652 -221.09799591 172.65025619 -199 145 C-198.24074219 144.04738281 -197.48148438 143.09476563 -196.69921875 142.11328125 C-192.39985891 136.78920353 -187.95316714 131.632679 -183.3359375 126.58203125 C-182.07459517 125.18780503 -180.81907332 123.78768873 -179.59960938 122.35668945 C-174.47729223 116.36535222 -168.96555524 110.77942331 -163.39501953 105.2097168 C-161.76172552 103.57424118 -160.1366153 101.93092292 -158.51171875 100.28710938 C-152.72716272 94.47231532 -146.85429268 89.02874972 -140.40966797 83.94213867 C-137.96453793 81.97141837 -135.66750428 79.89526256 -133.375 77.75 C-126.31331487 71.33433654 -118.64935036 65.68810493 -111 60 C-109.90824463 59.18692383 -109.90824463 59.18692383 -108.79443359 58.35742188 C-82.96933426 39.20894313 -55.56879816 23.01691545 -26.91455078 8.49609375 C-24.42979062 7.22061961 -21.97345849 5.91001891 -19.52734375 4.5625 C-13.22125912 1.12266849 -7.30622991 -1.94385933 0 0 Z M-37.8125 32.1875 C-38.79138184 32.72342773 -39.77026367 33.25935547 -40.77880859 33.81152344 C-51.08130961 39.51035758 -61.08332079 45.65791207 -71 52 C-72.10472656 52.70640625 -73.20945312 53.4128125 -74.34765625 54.140625 C-95.57909698 68.0418159 -115.74224404 83.63745058 -134.48828125 100.734375 C-135.87325166 101.98364846 -137.26476655 103.22620197 -138.68286133 104.43774414 C-144.24539231 109.20471782 -149.45234987 114.29915507 -154.6184082 119.48803711 C-156.06025221 120.93524385 -157.50737116 122.37702026 -158.95507812 123.81835938 C-164.18278413 129.04203671 -169.21477437 134.3678735 -174 140 C-174.85722656 140.97582031 -175.71445313 141.95164062 -176.59765625 142.95703125 C-182.19460795 149.44098005 -187.45597741 156.12221613 -192.5625 163 C-193.17037354 163.81315674 -193.77824707 164.62631348 -194.40454102 165.46411133 C-194.97358154 166.23907959 -195.54262207 167.01404785 -196.12890625 167.8125 C-196.88796265 168.84310547 -196.88796265 168.84310547 -197.66235352 169.89453125 C-199.19078746 172.30030134 -200.30463623 174.22064812 -201 177 C-200.02683813 179.77817823 -200.02683813 179.77817823 -198.203125 182.484375 C-197.5740625 183.50144531 -196.945 184.51851562 -196.296875 185.56640625 C-195.62140625 186.61699219 -194.9459375 187.66757813 -194.25 188.75 C-193.59 189.81605469 -192.93 190.88210937 -192.25 191.98046875 C-189.3747714 197.25335441 -189.3747714 197.25335441 -185 201 C-184.69408936 200.47792969 -184.38817871 199.95585937 -184.07299805 199.41796875 C-177.13798854 187.62160925 -169.92482421 176.15454176 -162 165 C-161.13531018 163.77351257 -160.27072558 162.54695095 -159.40625 161.3203125 C-148.55732289 145.98238946 -137.21778026 130.99042033 -125.00463867 116.71020508 C-121.170718 112.22703046 -117.46018073 107.65541602 -113.77734375 103.046875 C-111.28551966 100.17716989 -110.42462951 100.03088215 -106.5625 99.75 C-103 100 -103 100 -101.0625 101 C-99.3351853 104.25141591 -99.33994907 107.46085078 -100 111 C-101.60521921 113.80177106 -103.70220046 115.99781887 -105.9375 118.3125 C-107.14691578 119.63442716 -108.35524595 120.95734834 -109.5625 122.28125 C-110.15546875 122.91933594 -110.7484375 123.55742188 -111.359375 124.21484375 C-138.12564116 153.3390905 -164.67137056 189.98754329 -181 226 C-179.09322659 225.76037198 -177.18645515 225.52072828 -175.2796936 225.28100586 C-173.20568085 225.0253532 -171.12965351 224.78618 -169.0534668 224.54882812 C-150.99665753 222.84154252 -150.99665753 222.84154252 -135.5234375 214.63916016 C-131.71134487 208.80661645 -129.9742137 202.26414047 -128.13037109 195.6015625 C-126.32157414 189.83841504 -123.63392936 184.53928139 -120.92663574 179.15933228 C-119.695442 176.70550039 -118.49602025 174.2366921 -117.29544067 171.76777649 C-116.42096689 169.97142605 -115.54083958 168.17783135 -114.66064453 166.38427734 C-113.14071257 163.28676237 -111.6304126 160.18472559 -110.12109375 157.08203125 C-103.59375805 143.75332936 -96.43520381 130.84101876 -89 118 C-88.47680176 117.08750488 -87.95360352 116.17500977 -87.41455078 115.23486328 C-71.49519089 87.48884275 -53.35178398 61.12181907 -32.984375 36.45703125 C-30.51029604 33.39365396 -28.23329403 30.24187843 -26 27 C-30.19146608 27 -34.21573654 30.21321282 -37.8125 32.1875 Z M-212 192 C-213.43930464 194.54065934 -214.87648839 197.08248022 -216.3125 199.625 C-216.91868164 200.69427734 -216.91868164 200.69427734 -217.53710938 201.78515625 C-217.93349609 202.48769531 -218.32988281 203.19023437 -218.73828125 203.9140625 C-219.09962158 204.5529541 -219.46096191 205.1918457 -219.83325195 205.85009766 C-220.21827881 206.55956543 -220.60330566 207.2690332 -221 208 C-221.58974609 208.9178125 -222.17949219 209.835625 -222.78710938 210.78125 C-224.3897211 215.03423572 -223.3294701 217.58717392 -221.66796875 221.5859375 C-221.39737137 222.28772125 -221.12677399 222.989505 -220.84797668 223.71255493 C-219.98248617 225.94243488 -219.08574055 228.15813751 -218.1875 230.375 C-217.59359406 231.888497 -217.00177273 233.40281379 -216.41210938 234.91796875 C-214.96538393 238.62191095 -213.49050796 242.31347064 -212 246 C-211.34 246 -210.68 246 -210 246 C-208.06164379 242.29211361 -206.12446776 238.58361187 -204.1875 234.875 C-203.64029297 233.82828125 -203.09308594 232.7815625 -202.52929688 231.703125 C-201.99755859 230.68476563 -201.46582031 229.66640625 -200.91796875 228.6171875 C-200.43094482 227.68503418 -199.9439209 226.75288086 -199.44213867 225.79248047 C-198.96623291 224.87096191 -198.49032715 223.94944336 -198 223 C-197.38463379 222.01902344 -196.76926758 221.03804687 -196.13525391 220.02734375 C-194.64383163 217.02038247 -194.64383163 217.02038247 -196.00463867 214.02392578 C-196.6360376 213.0079834 -197.26743652 211.99204102 -197.91796875 210.9453125 C-198.93407227 209.28242188 -198.93407227 209.28242188 -199.97070312 207.5859375 C-200.33429932 207.01842773 -200.69789551 206.45091797 -201.07250977 205.86621094 C-202.1887078 204.12311386 -203.26944575 202.36172926 -204.34570312 200.59375 C-207.04730179 196.21124215 -207.04730179 196.21124215 -210 192 C-210.66 192 -211.32 192 -212 192 Z M-234 234 C-235.38467807 237.15416418 -236.72686214 240.32479414 -238.0625 243.5 C-238.45244141 244.386875 -238.84238281 245.27375 -239.24414062 246.1875 C-239.60830078 247.0640625 -239.97246094 247.940625 -240.34765625 248.84375 C-240.68804932 249.63974609 -241.02844238 250.43574219 -241.37915039 251.25585938 C-242.7760159 257.42997197 -240.68598525 263.63892311 -238.93359375 269.5625 C-238.73524429 270.23925781 -238.53689484 270.91601562 -238.33253479 271.61328125 C-237.70663753 273.74394284 -237.07224248 275.87195882 -236.4375 278 C-236.00789533 279.45686381 -235.57885383 280.91389382 -235.15039062 282.37109375 C-234.10675385 285.91600427 -233.05548803 289.45859757 -232 293 C-228.63165232 289.63165232 -227.20373322 285.13573638 -225.3125 280.8125 C-224.88388672 279.87857422 -224.45527344 278.94464844 -224.01367188 277.98242188 C-223.61341797 277.06654297 -223.21316406 276.15066406 -222.80078125 275.20703125 C-222.43122314 274.3766333 -222.06166504 273.54623535 -221.6809082 272.69067383 C-220.19240223 266.80870024 -222.38592351 261.45019783 -224.50390625 255.97265625 C-224.7466478 255.33887558 -224.98938934 254.70509491 -225.23948669 254.05210876 C-226.00699575 252.05286139 -226.78453845 250.0577 -227.5625 248.0625 C-228.08856243 246.69752435 -228.61395939 245.33229203 -229.13867188 243.96679688 C-230.41810776 240.6415315 -231.70656472 237.31984898 -233 234 C-233.33 234 -233.66 234 -234 234 Z M-195.10595703 247.57421875 C-199.63245638 253.50156316 -201.80839763 260.18701364 -203.84863281 267.29199219 C-205.0927867 271.29882198 -206.64395161 275.03346047 -208.3671875 278.8515625 C-208.65628494 279.49390839 -208.94538239 280.13625427 -209.24324036 280.79806519 C-209.8185288 282.07347138 -210.39467476 283.34849116 -210.97171021 284.62310791 C-212.30316934 287.59531943 -213.57153156 290.59067458 -214.83203125 293.59375 C-215.25202393 294.59083984 -215.6720166 295.58792969 -216.10473633 296.61523438 C-217.11715318 298.88752205 -217.11715318 298.88752205 -217 301 C-212.18643277 299.52227733 -207.79256078 297.5727441 -203.28515625 295.3671875 C-202.55235947 295.01165802 -201.81956268 294.65612854 -201.06455994 294.28982544 C-199.51474369 293.53680412 -197.96581426 292.7819552 -196.41772461 292.02539062 C-194.10309955 290.89483053 -191.78522464 289.77117478 -189.46679688 288.6484375 C-185.69610482 286.81842095 -181.94199822 284.95696184 -178.19296265 283.08303833 C-176.02800215 282.01382942 -173.84852718 280.98022618 -171.6652832 279.94897461 C-163.76063044 276.40255351 -163.76063044 276.40255351 -158.28515625 270.01953125 C-157.56859586 267.96153258 -157.56859586 267.96153258 -157.0625 265.8125 C-156.56434485 264.24810926 -156.06425519 262.68433356 -155.5625 261.12109375 C-155.31886719 260.2997998 -155.07523438 259.47850586 -154.82421875 258.63232422 C-153.30891539 253.792869 -151.403167 249.09797047 -149.5625 244.375 C-148.87447027 242.57101008 -148.18810885 240.76638242 -147.50390625 238.9609375 C-147.21330322 238.19571777 -146.9227002 237.43049805 -146.62329102 236.64208984 C-146.41760498 236.1002002 -146.21191895 235.55831055 -146 235 C-159.87360592 235 -184.75438271 237.65148825 -195.10595703 247.57421875 Z M-275 368 C-275 373.28 -275 378.56 -275 384 C-270.38 384 -265.76 384 -261 384 C-260.34 381.916875 -259.68 379.83375 -259 377.6875 C-258.62875 376.51574219 -258.2575 375.34398437 -257.875 374.13671875 C-256.86565228 371.06113324 -256.86565228 371.06113324 -257 368 C-262.94 368 -268.88 368 -275 368 Z M-240 368 C-242.80836468 375.87844812 -242.80836468 375.87844812 -244 384 C-232.78 384 -221.56 384 -210 384 C-210.33 378.72 -210.66 373.44 -211 368 C-220.57 368 -230.14 368 -240 368 Z M-291 407 C-292.91915369 408.38245825 -294.86865071 409.72449813 -296.85546875 411.0078125 C-297.88994141 411.68457031 -298.92441406 412.36132812 -299.99023438 413.05859375 C-301.04533203 413.74050781 -302.10042969 414.42242187 -303.1875 415.125 C-305.30962002 416.49700509 -307.42823914 417.87444341 -309.54296875 419.2578125 C-310.47133545 419.8573877 -311.39970215 420.45696289 -312.35620117 421.07470703 C-317.26788456 424.65154101 -320.93330034 428.21357389 -323 434 C-323.42052645 437.77453712 -323.42051333 441.51765417 -323.3984375 445.3125 C-323.40130768 446.39958252 -323.40417786 447.48666504 -323.40713501 448.60668945 C-323.4091718 450.89958214 -323.40366896 453.19249235 -323.39111328 455.48535156 C-323.37505489 458.98802675 -323.39097583 462.48954805 -323.41015625 465.9921875 C-323.40817375 468.22396087 -323.40432994 470.45573353 -323.3984375 472.6875 C-323.40451019 473.73139893 -323.41058289 474.77529785 -323.4168396 475.85083008 C-323.34782886 483.01148404 -322.48614464 487.51385536 -317.25 492.75 C-310.10413855 497.69713485 -302.89229366 497.28791412 -294.47460938 497.25878906 C-293.22662064 497.2622937 -291.9786319 497.26579834 -290.69282532 497.26940918 C-287.28576765 497.27668192 -283.87895424 497.27500737 -280.47191048 497.26865101 C-276.89708262 497.263568 -273.32226481 497.26828884 -269.74743652 497.27142334 C-263.74550515 497.2750563 -257.74362309 497.27028152 -251.74169922 497.26074219 C-244.8144382 497.24985891 -237.88729493 497.25338496 -230.96003675 497.264395 C-224.9997404 497.27348701 -219.03947938 497.2747438 -213.07917833 497.26951766 C-209.52490847 497.26640847 -205.97069387 497.26595961 -202.41642761 497.27259064 C-198.45270248 497.27946976 -194.489108 497.26992009 -190.52539062 497.25878906 C-189.3553096 497.26283752 -188.18522858 497.26688599 -186.97969055 497.27105713 C-178.87652513 497.22893561 -172.04338383 497.04338383 -166 491 C-162.08967457 485.26485604 -162.61548555 479.49144834 -162.70703125 472.8203125 C-162.71127609 471.6524118 -162.71552094 470.48451111 -162.71989441 469.28121948 C-162.736646 465.56224214 -162.77429302 461.84381273 -162.8125 458.125 C-162.82755133 455.59896618 -162.84123895 453.07292383 -162.85351562 450.546875 C-162.88653808 444.36439735 -162.93670309 438.18223783 -163 432 C-163.59506757 431.99853344 -164.19013514 431.99706688 -164.80323505 431.99555588 C-179.27500193 431.95852244 -193.74655601 431.89955402 -208.21812916 431.81609726 C-215.21646833 431.77626856 -222.21469444 431.74389568 -229.21313477 431.72900391 C-235.96302221 431.71462017 -242.71250876 431.67955335 -249.46225548 431.63169098 C-252.04150033 431.61681715 -254.62079518 431.60895557 -257.20008278 431.60811615 C-260.80410035 431.60576284 -264.40713682 431.57881389 -268.01098633 431.54589844 C-269.08488617 431.5509288 -270.15878601 431.55595917 -271.26522827 431.56114197 C-272.24539413 431.54722916 -273.22556 431.53331635 -274.23542786 431.51898193 C-275.08808637 431.51529476 -275.94074488 431.51160759 -276.81924152 431.50780869 C-279 431 -279 431 -280.79314709 429.11502457 C-282.28806074 426.49517002 -282.16383866 425.19463896 -281.6875 422.25 C-281.56761719 421.45078125 -281.44773437 420.6515625 -281.32421875 419.828125 C-281.21722656 419.22484375 -281.11023438 418.6215625 -281 418 C-278.25546465 417.22999086 -275.79781835 416.86842878 -272.95037842 416.84178162 C-272.15394928 416.8319928 -271.35752014 416.82220398 -270.53695679 416.81211853 C-269.67236847 416.80636307 -268.80778015 416.8006076 -267.91699219 416.79467773 C-266.54086258 416.77982834 -266.54086258 416.77982834 -265.13693237 416.76467896 C-262.10693943 416.73311158 -259.07693081 416.7083253 -256.046875 416.68359375 C-253.94508458 416.66302012 -251.84329826 416.64202353 -249.74151611 416.62062073 C-244.21121543 416.56544238 -238.68087767 416.51601437 -233.1505127 416.46777344 C-227.50655825 416.41752751 -221.86265761 416.36185757 -216.21875 416.30664062 C-205.14587931 416.19911085 -194.07296188 416.09765434 -183 416 C-186.24711353 412.65447578 -189.69443087 410.0176631 -193.5625 407.4375 C-199.80184439 403.26167062 -199.80184439 403.26167062 -201.21492004 401.3956604 C-204.03269965 399.1925863 -207.12432781 399.54934169 -210.55737305 399.54833984 C-211.32524643 399.53665771 -212.09311981 399.52497559 -212.88426208 399.51293945 C-215.42687418 399.47930467 -217.96890363 399.46860992 -220.51171875 399.4609375 C-222.28188788 399.44875642 -224.05205493 399.4362704 -225.82221985 399.42349243 C-229.53704449 399.40099909 -233.25166381 399.39146091 -236.96655273 399.38916016 C-241.71385425 399.38388842 -246.45943262 399.33263707 -251.20627117 399.26964378 C-254.86532714 399.22865302 -258.52397216 399.219517 -262.18323708 399.21904373 C-263.93229244 399.21367518 -265.68135313 399.19687856 -267.4301815 399.16819382 C-277.34158857 399.0192402 -284.21244632 398.97533918 -291 407 Z " fill="#816767" transform="translate(422,0)"/>
</svg>
